<?xml version="1.0" encoding="UTF-8" standalone="no"?>
<svg
   width="16"
   height="16"
   version="1.1"
   id="svg1"
   sodipodi:docname="dots-vert.svg"
   inkscape:version="1.4.2 (ebf0e940d0, 2025-05-08)"
   xmlns:inkscape="http://www.inkscape.org/namespaces/inkscape"
   xmlns:sodipodi="http://sodipodi.sourceforge.net/DTD/sodipodi-0.dtd"
   xmlns="http://www.w3.org/2000/svg"
   xmlns:svg="http://www.w3.org/2000/svg">
  <sodipodi:namedview
     id="namedview1"
     pagecolor="#505050"
     bordercolor="#ffffff"
     borderopacity="1"
     inkscape:showpageshadow="0"
     inkscape:pageopacity="0"
     inkscape:pagecheckerboard="1"
     inkscape:deskcolor="#d1d1d1"
     inkscape:zoom="27.03125"
     inkscape:cx="8.5641618"
     inkscape:cy="8.249711"
     inkscape:window-width="1920"
     inkscape:window-height="1052"
     inkscape:window-x="0"
     inkscape:window-y="0"
     inkscape:window-maximized="1"
     inkscape:current-layer="svg1" />
  <defs
     id="defs1">
    <style
       id="current-color-scheme"
       type="text/css">
   .ColorScheme-Text { color:#dfdfdf; } .ColorScheme-Highlight { color:#4285f4; } .ColorScheme-NeutralText { color:#ff9800; } .ColorScheme-PositiveText { color:#4caf50; } .ColorScheme-NegativeText { color:#f44336; }
  </style>
  </defs>
  <path
     style="fill:#f8f8f8;fill-opacity:1;stroke-width:1"
     class="ColorScheme-Text"
     d="M 10,2 A 2,2 0 0 0 8,0 2,2 0 0 0 6,2 2,2 0 0 0 8,4 2,2 0 0 0 10,2 Z m 0,6 A 2,2 0 0 0 8,6 2,2 0 0 0 6,8 2,2 0 0 0 8,10 2,2 0 0 0 10,8 Z m 0,6 a 2,2 0 0 0 -2,-2 2,2 0 0 0 -2,2 2,2 0 0 0 2,2 2,2 0 0 0 2,-2 z"
     id="path1" />
</svg>
