<?xml version="1.0" encoding="UTF-8" standalone="no"?>
<svg
   width="16"
   height="16"
   version="1.1"
   id="svg4"
   sodipodi:docname="locked.svg"
   inkscape:version="1.1.2 (0a00cf5339, 2022-02-04)"
   xmlns:inkscape="http://www.inkscape.org/namespaces/inkscape"
   xmlns:sodipodi="http://sodipodi.sourceforge.net/DTD/sodipodi-0.dtd"
   xmlns="http://www.w3.org/2000/svg"
   xmlns:svg="http://www.w3.org/2000/svg">
  <defs
     id="defs8" />
  <sodipodi:namedview
     id="namedview6"
     pagecolor="#ffffff"
     bordercolor="#666666"
     borderopacity="1.0"
     inkscape:pageshadow="2"
     inkscape:pageopacity="0.0"
     inkscape:pagecheckerboard="0"
     showgrid="false"
     inkscape:zoom="32"
     inkscape:cx="2.40625"
     inkscape:cy="6.40625"
     inkscape:window-width="1920"
     inkscape:window-height="1020"
     inkscape:window-x="0"
     inkscape:window-y="29"
     inkscape:window-maximized="1"
     inkscape:current-layer="svg4" />
  <path
     id="path2"
     style="display:inline;fill:#e8e8e8;fill-opacity:1"
     d="M 3,7 C 2.446,7 2,7.446 2,8 v 6 c 0,0.554 0.446,1 1,1 h 10 c 0.554,0 1,-0.446 1,-1 V 8 C 14,7.446 13.554,7 13,7 H 12 10 6 4 Z"
     inkscape:label="body" />
  <path
     id="path825"
     style="display:inline;opacity:0.6;fill:#e8e8e8;stroke-width:1.00001;fill-opacity:1"
     d="M 8,1 C 5.784,1 4,2.7839444 4,5 V 6.9980469 H 6 V 5 C 6,3.8919722 6.892,3 8,3 c 1.108,0 2,0.8919722 2,2 v 1.9980469 h 2 V 5 C 12,2.7839444 10.216,1 8,1 Z"
     inkscape:label="handle" />
</svg>
