<?xml version="1.0" encoding="UTF-8" standalone="no"?>
<svg
   width="16"
   height="16"
   version="1.1"
   id="svg6"
   sodipodi:docname="advanced.svg"
   inkscape:version="1.1.2 (0a00cf5339, 2022-02-04)"
   xmlns:inkscape="http://www.inkscape.org/namespaces/inkscape"
   xmlns:sodipodi="http://sodipodi.sourceforge.net/DTD/sodipodi-0.dtd"
   xmlns="http://www.w3.org/2000/svg"
   xmlns:svg="http://www.w3.org/2000/svg">
  <defs
     id="defs10" />
  <sodipodi:namedview
     id="namedview8"
     pagecolor="#ffffff"
     bordercolor="#666666"
     borderopacity="1.0"
     inkscape:pageshadow="2"
     inkscape:pageopacity="0.0"
     inkscape:pagecheckerboard="0"
     showgrid="false"
     inkscape:zoom="53.9375"
     inkscape:cx="7.99073"
     inkscape:cy="8.1575898"
     inkscape:window-width="1920"
     inkscape:window-height="1020"
     inkscape:window-x="0"
     inkscape:window-y="29"
     inkscape:window-maximized="1"
     inkscape:current-layer="svg6" />
  <path
     style="fill:#e8e8e8;stroke-width:0.937919;fill-opacity:1"
     d="M 7.7748993,5.6209672 7.6717282,6.8562071 A 3.6847104,3.6847104 0 0 0 6.5931208,7.4789856 L 5.4676174,6.950937 4.2952181,8.9815326 5.3175503,9.689662 a 3.6847104,3.6847104 0 0 0 -0.056275,0.620903 3.6847104,3.6847104 0 0 0 0.056275,0.624654 l -1.0223322,0.705315 1.1723993,2.030596 1.1255034,-0.527111 a 3.6847104,3.6847104 0 0 0 1.0786074,0.619027 l 0.1031711,1.237116 h 2.3447987 l 0.103171,-1.23524 a 3.6847104,3.6847104 0 0 0 1.078608,-0.622779 L 12.417601,13.67113 13.59,11.640534 12.577047,10.932405 a 3.6847104,3.6847104 0 0 0 0.05627,-0.62184 3.6847104,3.6847104 0 0 0 -0.05627,-0.6237171 L 13.59,8.9815326 12.417601,6.950937 11.301477,7.4780477 A 3.6847104,3.6847104 0 0 0 10.222869,6.8590209 L 10.119698,5.6209672 Z M 8.9472987,8.9712155 A 1.3399117,1.3399117 0 0 1 10.288523,10.310565 1.3399117,1.3399117 0 0 1 8.9472987,11.650852 1.3399117,1.3399117 0 0 1 7.6060738,10.310565 1.3399117,1.3399117 0 0 1 8.9472987,8.9712155 Z"
     id="path2"
     inkscape:label="front" />
  <path
     style="opacity:0.6;fill:#e8e8e8;stroke-width:0.937919;fill-opacity:1"
     d="M 7.2402852,5.8742054 6.9213926,5.2007793 A 2.21077,2.21077 0 0 0 7.2965604,4.5545528 L 8.0375168,4.4926501 V 3.084833 L 7.2965604,3.0229303 A 2.21077,2.21077 0 0 0 7.1371141,2.6834034 2.21077,2.21077 0 0 0 6.9213926,2.3748279 L 7.2402852,1.7032776 6.0209899,0.99983805 5.5989262,1.6104236 a 2.21077,2.21077 0 0 0 -0.7503356,0.00188 L 4.4265268,0.99983805 3.2072315,1.7032776 3.5261242,2.3757658 A 2.21077,2.21077 0 0 0 3.1509564,3.0229303 L 2.41,3.084833 v 1.4068791 l 0.7409564,0.061903 A 2.21077,2.21077 0 0 0 3.3104027,4.8940796 2.21077,2.21077 0 0 0 3.5261242,5.2017172 L 3.2072315,5.8732675 4.4265268,6.5767071 4.8485906,5.9670595 a 2.21077,2.21077 0 0 0 0.7503356,-0.00188 L 6.0209899,6.577645 Z M 5.6270638,4.4851467 A 0.80392829,0.80392829 0 0 1 4.529698,4.19064 0.80392829,0.80392829 0 0 1 4.820453,3.0923363 0.80392829,0.80392829 0 0 1 5.9178188,3.386843 0.80392829,0.80392829 0 0 1 5.6270638,4.4851467 Z"
     id="path4"
     inkscape:label="back" />
</svg>
