<?xml version="1.0" encoding="UTF-8" standalone="no"?>
<svg
   width="16"
   height="16"
   version="1.1"
   id="svg4"
   sodipodi:docname="stream.svg"
   inkscape:version="1.1.2 (0a00cf5339, 2022-02-04)"
   xmlns:inkscape="http://www.inkscape.org/namespaces/inkscape"
   xmlns:sodipodi="http://sodipodi.sourceforge.net/DTD/sodipodi-0.dtd"
   xmlns="http://www.w3.org/2000/svg"
   xmlns:svg="http://www.w3.org/2000/svg">
  <defs
     id="defs8" />
  <sodipodi:namedview
     id="namedview6"
     pagecolor="#ffffff"
     bordercolor="#666666"
     borderopacity="1.0"
     inkscape:pageshadow="2"
     inkscape:pageopacity="0.0"
     inkscape:pagecheckerboard="0"
     showgrid="false"
     inkscape:zoom="53.9375"
     inkscape:cx="7.99073"
     inkscape:cy="8.01854"
     inkscape:window-width="1920"
     inkscape:window-height="1021"
     inkscape:window-x="0"
     inkscape:window-y="29"
     inkscape:window-maximized="1"
     inkscape:current-layer="svg4" />
  <path
     id="path2"
     style="opacity:0.6;fill:#e8e8e8;fill-opacity:1"
     d="m 2.0000002,1.0000001 c -1.26099995,0.98 -1.99999995,2.833 -1.99999995,5 0,2.127 0.777,4.0049999 1.99999995,4.9999999 h 1 V 9.0000002 c -0.607,-0.7800001 -1,-1.7590001 -1,-3.0000001 0,-1.2409999 0.393,-2.2109999 1,-2.9999999 V 1.0000001 Z m 10.9999998,0 v 2 c 0.607,0.789 1,1.759 1,3 0,1.241 -0.393,2.22 -1,3.0000001 V 11 h 1 c 1.223,-0.995 2,-2.8729999 2,-4.9999999 0,-2.1669999 -0.739,-4.0199999 -2,-5 z"
     inkscape:label="highlight" />
  <path
     id="path829"
     style="fill:#e8e8e8;fill-opacity:1"
     d="m 4.0000003,3.0000001 c -0.688,0.784 -1,1.743 -1,3 0,1.257 0.328,2.163 1,3.0000001 h 1.0000005 v -6 z m 6.9999997,0 v 6.0000001 h 1 c 0.672,-0.8370001 1,-1.7430001 1,-3.0000001 0,-1.257 -0.311999,-2.216 -1,-2.9999999 z m -2.9999992,1 a 2,2 0 1 0 0,4 2,2 0 0 0 0,-4 z m 0,5.0000001 a 1,1 0 0 0 -1,0.9999998 v 6 h 2 v -6 a 1,1 0 0 0 -1,-0.9999998 z"
     inkscape:label="main" />
</svg>
