<?xml version="1.0" encoding="UTF-8" standalone="no"?>
<svg
   width="16"
   height="16"
   version="1.1"
   id="svg4"
   sodipodi:docname="checkbox.svg"
   inkscape:version="1.1.2 (0a00cf5339, 2022-02-04)"
   xmlns:inkscape="http://www.inkscape.org/namespaces/inkscape"
   xmlns:sodipodi="http://sodipodi.sourceforge.net/DTD/sodipodi-0.dtd"
   xmlns="http://www.w3.org/2000/svg"
   xmlns:svg="http://www.w3.org/2000/svg">
  <defs
     id="defs8" />
  <sodipodi:namedview
     id="namedview6"
     pagecolor="#505050"
     bordercolor="#ffffff"
     borderopacity="1"
     inkscape:pageshadow="0"
     inkscape:pageopacity="0"
     inkscape:pagecheckerboard="1"
     showgrid="false"
     inkscape:zoom="53.9375"
     inkscape:cx="5.9884125"
     inkscape:cy="5.0428737"
     inkscape:window-width="1920"
     inkscape:window-height="1020"
     inkscape:window-x="1920"
     inkscape:window-y="29"
     inkscape:window-maximized="1"
     inkscape:current-layer="svg4"
     fit-margin-top="0"
     fit-margin-left="0"
     fit-margin-right="0"
     fit-margin-bottom="0" />
  <path
     style="opacity:0.300064;fill:#e8e8e8;stroke-width:0.75;fill-opacity:1"
     d="M 3.9995117,2 C 2.8895117,2 2,2.8895117 2,3.9995117 V 12.000488 C 2,13.110488 2.8895117,14 3.9995117,14 H 12.000488 C 13.110488,14 14,13.110488 14,12.000488 V 3.9995117 C 14,2.8895117 13.110488,2 12.000488,2 Z M 4.3994141,3.5 H 11.600586 C 12.095586,3.5 12.5,3.904414 12.5,4.3994141 V 11.600586 C 12.5,12.095587 12.095586,12.5 11.600586,12.5 H 4.3994141 C 3.904414,12.5 3.5,12.095587 3.5,11.600586 V 4.3994141 C 3.5,3.904414 3.904414,3.5 4.3994141,3.5 Z"
     id="path2"
     inkscape:label="outline" />
</svg>
