<?xml version="1.0" encoding="UTF-8" standalone="no"?>
<svg
   width="16"
   height="16"
   version="1.1"
   id="svg4"
   sodipodi:docname="gamepad.svg"
   inkscape:version="1.1.2 (0a00cf5339, 2022-02-04)"
   xmlns:inkscape="http://www.inkscape.org/namespaces/inkscape"
   xmlns:sodipodi="http://sodipodi.sourceforge.net/DTD/sodipodi-0.dtd"
   xmlns="http://www.w3.org/2000/svg"
   xmlns:svg="http://www.w3.org/2000/svg">
  <sodipodi:namedview
     id="namedview6"
     pagecolor="#ffffff"
     bordercolor="#666666"
     borderopacity="1.0"
     inkscape:pageshadow="2"
     inkscape:pageopacity="0.0"
     inkscape:pagecheckerboard="0"
     showgrid="false"
     inkscape:zoom="53.9375"
     inkscape:cx="7.99073"
     inkscape:cy="7.99073"
     inkscape:window-width="1920"
     inkscape:window-height="1020"
     inkscape:window-x="0"
     inkscape:window-y="29"
     inkscape:window-maximized="1"
     inkscape:current-layer="svg4" />
  <rect
     style="opacity:0.15;fill:#e8e8e8;stroke-width:0.875;fill-opacity:1"
     id="rect843"
     width="9.9506989"
     height="3.691293"
     x="3.1322467"
     y="4.7028694"
     inkscape:label="buttons" />
  <path
     style="fill:#e8e8e8;fill-opacity:1;stroke-width:0.87501"
     d="m 11.706523,2.7608844 c -0.210877,0.00105 -0.405129,0.067201 -0.588006,0.1965272 -0.461131,0.3292662 -1.4221543,0.6822451 -3.1185357,0.6836451 -1.6963815,0 -2.6576672,-0.3543789 -3.1189724,-0.6836451 C 4.6987444,2.8280851 4.5240049,2.7650844 4.3119901,2.766047 4.0998877,2.766922 3.85541,2.8237101 3.6061197,2.9574116 2.6983845,3.4356044 1.8639315,5.0015219 1.4100639,7.0317196 1.0231696,8.7562764 0.88033299,11.114603 1.1109856,12.063113 c 0.2008847,0.815509 0.5480098,1.176013 1.1655567,1.176013 0.9151728,-0.01575 2.0650231,-1.035136 2.7941688,-2.406277 0.5273683,-0.759508 1.7505445,-1.1049618 2.9292702,-1.0667238 1.1786382,-0.041125 2.4019027,0.3072158 2.9295327,1.0667238 0.728884,1.371141 1.878646,2.390527 2.793907,2.406277 0.617757,0 0.96426,-0.360504 1.165513,-1.176013 0.231002,-0.94851 0.0875,-3.3068366 -0.299254,-5.0313934 C 14.136425,5.0015219 13.301666,3.4356044 12.393406,2.9574116 12.144903,2.8242351 11.9174,2.7599219 11.706523,2.7608844 Z M 4.5289925,5.3910763 H 5.3971772 V 6.2660861 H 6.2636119 V 7.1410958 H 5.3971772 V 8.0161056 H 4.5289925 V 7.1410958 H 3.6608078 V 6.2660861 h 0.8681847 z m 6.5081485,0 c 0.239752,0 0.434004,0.1959147 0.434004,0.4375049 0,0.2416777 -0.194252,0.4375049 -0.434004,0.4375049 -0.239753,0 -0.432255,-0.1958272 -0.432255,-0.4375049 0,-0.2415902 0.192502,-0.4375049 0.432255,-0.4375049 z m -0.867135,0.8750098 c 0.239753,0 0.43488,0.1959147 0.43488,0.4375049 0,0.2416777 -0.195127,0.4375048 -0.43488,0.4375048 -0.2388781,0 -0.4336553,-0.1958271 -0.4336553,-0.4375048 0,-0.2415902 0.1947772,-0.4375049 0.4336553,-0.4375049 z m 1.735144,0 c 0.239753,0 0.434005,0.1959147 0.434005,0.4375049 0,0.2416777 -0.194252,0.4375048 -0.434005,0.4375048 -0.239752,0 -0.434005,-0.1958271 -0.434005,-0.4375048 0,-0.2415902 0.194253,-0.4375049 0.434005,-0.4375049 z m -0.868009,0.8750097 c 0.239752,0 0.434004,0.1959147 0.434004,0.4375049 0,0.2416777 -0.194252,0.4375049 -0.434004,0.4375049 -0.239753,0 -0.432255,-0.1958272 -0.432255,-0.4375049 0,-0.2415902 0.192502,-0.4375049 0.432255,-0.4375049 z"
     id="path2"
     inkscape:label="body" />
</svg>
