<?xml version="1.0" encoding="UTF-8" standalone="no"?>
<svg
   width="16"
   height="16"
   version="1.1"
   id="svg6"
   sodipodi:docname="media.svg"
   inkscape:version="1.1.2 (0a00cf5339, 2022-02-04)"
   xmlns:inkscape="http://www.inkscape.org/namespaces/inkscape"
   xmlns:sodipodi="http://sodipodi.sourceforge.net/DTD/sodipodi-0.dtd"
   xmlns="http://www.w3.org/2000/svg"
   xmlns:svg="http://www.w3.org/2000/svg">
  <sodipodi:namedview
     id="namedview8"
     pagecolor="#ffffff"
     bordercolor="#666666"
     borderopacity="1.0"
     inkscape:pageshadow="2"
     inkscape:pageopacity="0.0"
     inkscape:pagecheckerboard="0"
     showgrid="false"
     inkscape:zoom="53.9375"
     inkscape:cx="7.99073"
     inkscape:cy="4.6906141"
     inkscape:window-width="1920"
     inkscape:window-height="1020"
     inkscape:window-x="0"
     inkscape:window-y="29"
     inkscape:window-maximized="1"
     inkscape:current-layer="svg6" />
  <path
     style="opacity:0.6;fill:#e8e8e8;stroke-width:0.933333;fill-opacity:1"
     d="M 8.9333334,7.5333333 V 11.528 C 8.6533335,11.369333 8.3360002,11.266667 8.0000002,11.266667 c -1.036,0 -1.8666668,0.84 -1.8666668,1.866666 C 6.1333334,14.16 6.9640002,15 8.0000002,15 9.0266669,15 9.8666669,14.16 9.8666669,13.133333 V 9.4 H 13.6 v 2.128 c -0.28,-0.158667 -0.597333,-0.261333 -0.933333,-0.261333 -1.036,0 -1.866667,0.84 -1.866667,1.866666 C 10.8,14.16 11.630667,15 12.666667,15 c 1.026666,0 1.866666,-0.84 1.866666,-1.866667 V 7.5333333 Z"
     id="path2"
     inkscape:label="note" />
  <path
     style="fill:#e8e8e8;stroke-width:0.933333;fill-opacity:1"
     d="M 1.4666668,1 V 15 H 2.4000002 V 14.066667 H 3.3333335 V 15 H 4.2666668 V 12.2 H 5.2000001 V 10.333333 H 4.2666668 V 5.6666667 H 11.733333 V 6.6 h 2.8 V 1 H 13.6 v 0.9333333 0 H 12.666667 V 1 H 11.733333 V 3.8 H 4.2666668 V 1 H 3.3333335 v 0.9333333 0 H 2.4000002 V 1 Z M 2.4000002,2.8666667 H 3.3333335 V 3.8 H 2.4000002 Z m 10.2666668,0 H 13.6 V 3.8 H 12.666667 Z M 2.4000002,4.7333333 H 3.3333335 V 5.6666667 H 2.4000002 Z m 10.2666668,0 H 13.6 V 5.6666667 H 12.666667 Z M 2.4000002,6.6 H 3.3333335 V 7.5333333 H 2.4000002 Z m 0,1.8666667 H 3.3333335 V 9.4 H 2.4000002 Z m 0,1.8666663 h 0.9333333 v 0.933334 H 2.4000002 Z m 0,1.866667 h 0.9333333 v 0.933333 H 2.4000002 Z"
     id="path4"
     inkscape:label="body" />
</svg>
