<?xml version="1.0" encoding="UTF-8" standalone="no"?>
<svg
   width="16"
   height="16"
   version="1.1"
   id="svg6"
   sodipodi:docname="group.svg"
   inkscape:version="1.1.2 (0a00cf5339, 2022-02-04)"
   xmlns:inkscape="http://www.inkscape.org/namespaces/inkscape"
   xmlns:sodipodi="http://sodipodi.sourceforge.net/DTD/sodipodi-0.dtd"
   xmlns="http://www.w3.org/2000/svg"
   xmlns:svg="http://www.w3.org/2000/svg">
  <sodipodi:namedview
     id="namedview8"
     pagecolor="#ffffff"
     bordercolor="#666666"
     borderopacity="1.0"
     inkscape:pageshadow="2"
     inkscape:pageopacity="0.0"
     inkscape:pagecheckerboard="0"
     showgrid="false"
     inkscape:zoom="53.9375"
     inkscape:cx="7.99073"
     inkscape:cy="7.5643105"
     inkscape:window-width="1920"
     inkscape:window-height="1020"
     inkscape:window-x="0"
     inkscape:window-y="29"
     inkscape:window-maximized="1"
     inkscape:current-layer="svg6" />
  <path
     style="opacity:0.6;fill:#e8e8e8;fill-opacity:1"
     d="m 2,1.5 c 0,0 -1,0 -1,1 v 3 c 0,-1 1,-1 1,-1 h 5 l 2,2 h 5 c 0,0 1,0 1,1 v -3 c 0,-1 -1,-1 -1,-1 H 9 l -2,-2 z"
     id="path2"
     inkscape:label="back" />
  <path
     style="fill:#e8e8e8;fill-opacity:1"
     d="m 2,5.5 c 0,0 -1,0 -1,1 v 7 c 0,0 0,1 1,1 h 12 c 0,0 1,0 1,-1 v -5 c 0,-1 -1,-1 -1,-1 H 9 l -2,-2 z"
     id="path4"
     inkscape:label="front" />
</svg>
