<?xml version="1.0" encoding="UTF-8" standalone="no"?>
<svg
   width="16"
   height="16"
   version="1.1"
   id="svg4"
   sodipodi:docname="output.svg"
   inkscape:version="1.1.2 (0a00cf5339, 2022-02-04)"
   xmlns:inkscape="http://www.inkscape.org/namespaces/inkscape"
   xmlns:sodipodi="http://sodipodi.sourceforge.net/DTD/sodipodi-0.dtd"
   xmlns="http://www.w3.org/2000/svg"
   xmlns:svg="http://www.w3.org/2000/svg">
  <defs
     id="defs8" />
  <sodipodi:namedview
     id="namedview6"
     pagecolor="#ffffff"
     bordercolor="#666666"
     borderopacity="1.0"
     inkscape:pageshadow="2"
     inkscape:pageopacity="0.0"
     inkscape:pagecheckerboard="0"
     showgrid="false"
     inkscape:zoom="53.9375"
     inkscape:cx="7.99073"
     inkscape:cy="7.99073"
     inkscape:window-width="1920"
     inkscape:window-height="1020"
     inkscape:window-x="0"
     inkscape:window-y="29"
     inkscape:window-maximized="1"
     inkscape:current-layer="svg4" />
  <rect
     style="opacity:0.15;fill:#e8e8e8;stroke-width:0.875;fill-opacity:1"
     id="rect843"
     width="11.812016"
     height="8.486084"
     x="2.2665348"
     y="2.7418315"
     inkscape:label="arrow" />
  <path
     style="fill:#e8e8e8;stroke-width:0.875;fill-opacity:1"
     d="M 1.875,1.875 C 1,1.875 1,2.75 1,2.75 v 8.75 c 0,0.875 0.875,0.875 0.875,0.875 H 6.25 c 0,0 -0.875,0 -0.875,0.875 v 0.875 h 5.25 V 13.25 c 0,-0.875 -0.875,-0.875 -0.875,-0.875 h 4.375 C 15,12.375 15,11.5 15,11.5 V 2.75 c 0,0 0,-0.875 -0.875,-0.875 z m 7,1.75 3.5,2.520752 -3.5,2.5190429 V 7.125 H 7.5932617 C 6.8341173,7.0305285 6.1487987,7.7517212 5.9406739,8.3845215 5.6987989,9.1405209 6.7507324,10.625 6.7507324,10.625 6.7507324,10.625 4.5,9.7858199 4.5,7.9658203 4.5,6.2186203 5.6254884,5.375 7.3129883,5.375 H 8.875 Z"
     id="path2"
     inkscape:label="body" />
</svg>
