<?xml version="1.0" encoding="UTF-8" standalone="no"?>
<svg
   width="16"
   height="16"
   version="1.1"
   id="svg7"
   sodipodi:docname="entry-clear.svg"
   inkscape:version="1.1.2 (0a00cf5339, 2022-02-04)"
   xmlns:inkscape="http://www.inkscape.org/namespaces/inkscape"
   xmlns:sodipodi="http://sodipodi.sourceforge.net/DTD/sodipodi-0.dtd"
   xmlns="http://www.w3.org/2000/svg"
   xmlns:svg="http://www.w3.org/2000/svg">
  <sodipodi:namedview
     id="namedview9"
     pagecolor="#505050"
     bordercolor="#ffffff"
     borderopacity="1"
     inkscape:pageshadow="0"
     inkscape:pageopacity="0"
     inkscape:pagecheckerboard="1"
     showgrid="false"
     inkscape:zoom="38.183766"
     inkscape:cx="4.4521538"
     inkscape:cy="7.8174583"
     inkscape:window-width="1920"
     inkscape:window-height="1021"
     inkscape:window-x="1920"
     inkscape:window-y="28"
     inkscape:window-maximized="1"
     inkscape:current-layer="svg7" />
  <defs
     id="defs3">
    <style
       id="current-color-scheme"
       type="text/css">
   .ColorScheme-Text { color:#dfdfdf; } .ColorScheme-Highlight { color:#4285f4; } .ColorScheme-NeutralText { color:#ff9800; } .ColorScheme-PositiveText { color:#4caf50; } .ColorScheme-NegativeText { color:#f44336; }
  </style>
  </defs>
  <rect
     style="opacity:0.150275;fill:#e8e8e8;stroke-width:0.875"
     id="rect866"
     width="6.1677856"
     height="5.785603"
     x="6.593308"
     y="5.0953293"
     inkscape:label="x" />
  <path
     style="fill:#e8e8e8;fill-opacity:1;stroke-width:0.853913"
     class="ColorScheme-Text"
     d="M 5.375,3 1,8 5.375,13 H 15 V 3 Z m 1.75,2.5 H 8 c 0.245,0 0.46375,0.091667 0.62125,0.2416667 L 9.75,6.825 10.87875,5.7416667 C 11.03625,5.5916667 11.255,5.5 11.5,5.5 h 0.875 V 6.3333333 C 12.375,6.5666667 12.27875,6.775 12.12125,6.925 L 10.98375,8 l 1.1375,1.075 c 0.1575,0.15 0.25375,0.3583333 0.25375,0.5916667 V 10.5 H 11.5 c -0.245,0 -0.46375,-0.09167 -0.62125,-0.241667 L 9.75,9.175 8.62125,10.258333 C 8.46375,10.408333 8.245,10.5 8,10.5 H 7.125 V 9.6666667 C 7.125,9.4333333 7.22125,9.225 7.37875,9.075 L 8.51625,8 7.37875,6.925 C 7.22125,6.775 7.125,6.5666667 7.125,6.3333333 Z"
     id="path5"
     inkscape:label="body" />
</svg>
