<?xml version="1.0" encoding="UTF-8" standalone="no"?>
<svg
   width="16"
   height="16"
   version="1.1"
   id="svg6"
   sodipodi:docname="filter.svg"
   inkscape:version="1.1.2 (0a00cf5339, 2022-02-04)"
   xmlns:inkscape="http://www.inkscape.org/namespaces/inkscape"
   xmlns:sodipodi="http://sodipodi.sourceforge.net/DTD/sodipodi-0.dtd"
   xmlns="http://www.w3.org/2000/svg"
   xmlns:svg="http://www.w3.org/2000/svg">
  <defs
     id="defs10" />
  <sodipodi:namedview
     id="namedview8"
     pagecolor="#505050"
     bordercolor="#ffffff"
     borderopacity="1"
     inkscape:pageshadow="0"
     inkscape:pageopacity="0"
     inkscape:pagecheckerboard="1"
     showgrid="false"
     inkscape:zoom="53.9375"
     inkscape:cx="7.99073"
     inkscape:cy="8.00927"
     inkscape:window-width="1920"
     inkscape:window-height="1020"
     inkscape:window-x="0"
     inkscape:window-y="29"
     inkscape:window-maximized="1"
     inkscape:current-layer="svg6" />
  <path
     style="opacity:0.35;fill:#e8e8e8;fill-opacity:1"
     d="M 11,1 H 15 V 15 H 11 Z"
     id="path4"
     inkscape:label="highlight" />
  <path
     style="fill:#e8e8e8;fill-opacity:1"
     d="M 1 1 L 1 15 L 6 15 L 7 15 L 7 14 L 6 14 L 6 13 L 7 13 L 7 12 L 6 12 L 6 11 L 7 11 L 7 10 L 6 10 L 6 9 L 7 9 L 7 8 L 6 8 L 6 7 L 7 7 L 7 6 L 6 6 L 6 5 L 7 5 L 7 4 L 6 4 L 6 3 L 7 3 L 7 2 L 6 2 L 6 1 L 1 1 z M 7 2 L 8 2 L 8 1 L 7 1 L 7 2 z M 8 2 L 8 3 L 9 3 L 9 2 L 8 2 z M 9 2 L 10 2 L 10 1 L 9 1 L 9 2 z M 10 2 L 10 3 L 11 3 L 11 2 L 10 2 z M 10 3 L 9 3 L 9 4 L 10 4 L 10 3 z M 10 4 L 10 5 L 11 5 L 11 4 L 10 4 z M 10 5 L 9 5 L 9 6 L 10 6 L 10 5 z M 10 6 L 10 7 L 11 7 L 11 6 L 10 6 z M 10 7 L 9 7 L 9 8 L 10 8 L 10 7 z M 10 8 L 10 9 L 11 9 L 11 8 L 10 8 z M 10 9 L 9 9 L 9 10 L 10 10 L 10 9 z M 10 10 L 10 11 L 11 11 L 11 10 L 10 10 z M 10 11 L 9 11 L 9 12 L 10 12 L 10 11 z M 10 12 L 10 13 L 11 13 L 11 12 L 10 12 z M 10 13 L 9 13 L 9 14 L 10 14 L 10 13 z M 10 14 L 10 15 L 11 15 L 11 14 L 10 14 z M 9 14 L 8 14 L 8 15 L 9 15 L 9 14 z M 8 14 L 8 13 L 7 13 L 7 14 L 8 14 z M 8 13 L 9 13 L 9 12 L 8 12 L 8 13 z M 8 12 L 8 11 L 7 11 L 7 12 L 8 12 z M 8 11 L 9 11 L 9 10 L 8 10 L 8 11 z M 8 10 L 8 9 L 7 9 L 7 10 L 8 10 z M 8 9 L 9 9 L 9 8 L 8 8 L 8 9 z M 8 8 L 8 7 L 7 7 L 7 8 L 8 8 z M 8 7 L 9 7 L 9 6 L 8 6 L 8 7 z M 8 6 L 8 5 L 7 5 L 7 6 L 8 6 z M 8 5 L 9 5 L 9 4 L 8 4 L 8 5 z M 8 4 L 8 3 L 7 3 L 7 4 L 8 4 z"
     id="path2"
     inkscape:label="body" />
</svg>
