<?xml version="1.0" encoding="UTF-8" standalone="no"?>
<svg
   width="16"
   height="16"
   version="1.1"
   id="svg4"
   sodipodi:docname="mute.svg"
   inkscape:version="1.1.2 (0a00cf5339, 2022-02-04)"
   xmlns:inkscape="http://www.inkscape.org/namespaces/inkscape"
   xmlns:sodipodi="http://sodipodi.sourceforge.net/DTD/sodipodi-0.dtd"
   xmlns="http://www.w3.org/2000/svg"
   xmlns:svg="http://www.w3.org/2000/svg">
  <defs
     id="defs8" />
  <sodipodi:namedview
     id="namedview6"
     pagecolor="#505050"
     bordercolor="#ffffff"
     borderopacity="1"
     inkscape:pageshadow="0"
     inkscape:pageopacity="0"
     inkscape:pagecheckerboard="1"
     showgrid="false"
     inkscape:zoom="53.9375"
     inkscape:cx="7.99073"
     inkscape:cy="8.00927"
     inkscape:window-width="1920"
     inkscape:window-height="1020"
     inkscape:window-x="0"
     inkscape:window-y="29"
     inkscape:window-maximized="1"
     inkscape:current-layer="svg4" />
  <path
     style="opacity:0.35;fill:#e8e8e8;fill-opacity:1"
     class="ColorScheme-Text"
     d="M 2.3789062,1 1.0195312,2.4335938 3.7890625,5 H 1 v 6 h 3 l 4,4 V 8.9003906 l 2,1.8515624 V 11 c 0.05509,-0.03014 0.10304,-0.07048 0.15625,-0.103516 l 1.703125,1.578125 C 11.314099,12.925281 10.689481,13.280079 10,13.5 V 15 c 1.105551,-0.273755 2.105649,-0.804216 2.941406,-1.521484 L 14.621094,15 16,13.566406 14.269531,11.980469 13.166016,10.958984 11.484375,9.4003906 10,8.0273438 8,6.1738281 7.9394531,6.1171875 5.3144531,3.6855469 Z M 8,1 6.7285156,2.2714844 8,3.4472656 Z m 2,0 v 1.5 c 2.32,0.74 4,2.93 4,5.5 0,0.3186068 -0.02651,0.6306592 -0.07617,0.9355469 l 1.257813,1.1660151 C 15.384717,9.4368697 15.5,8.7332996 15.5,8 15.5,4.6 13.15,1.78 10,1 Z m 0,4 v 0.3007812 l 1.539062,1.4257813 C 11.241881,5.9888857 10.697769,5.3782301 10,5 Z"
     id="path2"
     inkscape:label="body" />
</svg>
