<?xml version="1.0" encoding="UTF-8" standalone="no"?>
<svg
   width="16"
   height="16"
   version="1.1"
   id="svg4"
   sodipodi:docname="unlocked.svg"
   inkscape:version="1.1.2 (0a00cf5339, 2022-02-04)"
   xmlns:inkscape="http://www.inkscape.org/namespaces/inkscape"
   xmlns:sodipodi="http://sodipodi.sourceforge.net/DTD/sodipodi-0.dtd"
   xmlns="http://www.w3.org/2000/svg"
   xmlns:svg="http://www.w3.org/2000/svg">
  <defs
     id="defs8" />
  <sodipodi:namedview
     id="namedview6"
     pagecolor="#ffffff"
     bordercolor="#666666"
     borderopacity="1.0"
     inkscape:pageshadow="2"
     inkscape:pageopacity="0.0"
     inkscape:pagecheckerboard="0"
     showgrid="false"
     inkscape:zoom="45.254834"
     inkscape:cx="3.5355339"
     inkscape:cy="8.131728"
     inkscape:window-width="1920"
     inkscape:window-height="1020"
     inkscape:window-x="0"
     inkscape:window-y="29"
     inkscape:window-maximized="1"
     inkscape:current-layer="svg4" />
  <path
     id="path821"
     style="display:inline;opacity:0.35;fill:#e8e8e8;fill-opacity:1"
     d="M 8 1 C 5.784 1 4 2.784 4 5 L 6 5 C 6 3.892 6.892 3 8 3 C 9.108 3 10 3.892 10 5 L 10 7.0058594 L 2.8984375 7.0058594 C 2.3929565 7.056887 2 7.4806278 2 8 L 2 14 C 2 14.553997 2.446 15 3 15 L 13 15 C 13.554 15 14 14.553997 14 14 L 14 8 C 14 7.4806278 13.607044 7.056887 13.101562 7.0058594 L 12 7.0058594 L 12 5 C 12 2.784 10.216 1 8 1 z "
     inkscape:label="body" />
</svg>
