<?xml version="1.0" encoding="UTF-8" standalone="no"?>
<svg
   width="16"
   height="16"
   version="1.1"
   id="svg1"
   sodipodi:docname="checked disabled.svg"
   inkscape:version="1.4.2 (ebf0e940d0, 2025-05-08)"
   xmlns:inkscape="http://www.inkscape.org/namespaces/inkscape"
   xmlns:sodipodi="http://sodipodi.sourceforge.net/DTD/sodipodi-0.dtd"
   xmlns="http://www.w3.org/2000/svg"
   xmlns:svg="http://www.w3.org/2000/svg">
  <sodipodi:namedview
     id="namedview1"
     pagecolor="#505050"
     bordercolor="#ffffff"
     borderopacity="1"
     inkscape:showpageshadow="0"
     inkscape:pageopacity="0"
     inkscape:pagecheckerboard="1"
     inkscape:deskcolor="#d1d1d1"
     inkscape:zoom="36.25"
     inkscape:cx="12.013793"
     inkscape:cy="5.3793103"
     inkscape:window-width="1868"
     inkscape:window-height="1052"
     inkscape:window-x="0"
     inkscape:window-y="0"
     inkscape:window-maximized="1"
     inkscape:current-layer="svg1" />
  <defs
     id="defs1">
    <style
       id="current-color-scheme"
       type="text/css">
   .ColorScheme-Text { color:#444444; } .ColorScheme-Highlight { color:#4285f4; } .ColorScheme-NeutralText { color:#ff9800; } .ColorScheme-PositiveText { color:#4caf50; } .ColorScheme-NegativeText { color:#f44336; }
  </style>
  </defs>
  <path
     style="opacity:0.5;fill:#f8f8f8;fill-opacity:1;stroke-width:1"
     d="M 15,3 A 1,1 0 0 0 14.292969,3.2929688 L 8.1093747,9.4765627 5.8007813,6.4003907 A 1,1 0 0 0 4.4003905,6.1992187 1,1 0 0 0 4.1992188,7.5996093 l 2.9999999,3.9999997 a 1.0001,1.0001 0 0 0 1.507812,0.107427 L 15.707031,4.7070364 a 1,1 0 0 0 0,-1.4140623 A 1,1 0 0 0 15,3 Z"
     id="path2" />
  <path
     style="opacity:0.150066;fill:#f8f8f8;fill-opacity:1;stroke-width:1"
     d="M 2.6660156,0 C 1.1860156,0 0,1.1860156 0,2.6660156 V 13.333984 C 0,14.813984 1.1860156,16 2.6660156,16 H 13.333984 C 14.813984,16 16,14.813984 16,13.333984 V 5.8281253 l -2,2 V 12.800781 C 14,13.460781 13.460781,14 12.800781,14 H 3.1992188 C 2.5392187,14 2,13.460781 2,12.800781 V 3.1992188 C 2,2.5392187 2.5392187,2 3.1992188,2 h 9.6015622 c 0.377207,0 0.711454,0.1789787 0.93164,0.4531249 C 14.088197,2.1616304 14.536233,2.0000701 15,2 c 0.340465,5.15e-5 0.671649,0.088356 0.964844,0.25 C 15.766369,0.9705988 14.671861,0 13.333984,0 Z"
     id="path1" />
</svg>
