<?xml version="1.0" encoding="UTF-8" standalone="no"?>
<svg
   width="16"
   height="16"
   version="1.1"
   id="svg4"
   sodipodi:docname="general.svg"
   inkscape:version="1.1.2 (0a00cf5339, 2022-02-04)"
   xmlns:inkscape="http://www.inkscape.org/namespaces/inkscape"
   xmlns:sodipodi="http://sodipodi.sourceforge.net/DTD/sodipodi-0.dtd"
   xmlns="http://www.w3.org/2000/svg"
   xmlns:svg="http://www.w3.org/2000/svg">
  <defs
     id="defs8" />
  <sodipodi:namedview
     id="namedview6"
     pagecolor="#505050"
     bordercolor="#ffffff"
     borderopacity="1"
     inkscape:pageshadow="0"
     inkscape:pageopacity="0"
     inkscape:pagecheckerboard="1"
     showgrid="false"
     inkscape:zoom="53.9375"
     inkscape:cx="7.99073"
     inkscape:cy="8.00927"
     inkscape:window-width="1920"
     inkscape:window-height="1020"
     inkscape:window-x="0"
     inkscape:window-y="29"
     inkscape:window-maximized="1"
     inkscape:current-layer="svg4" />
  <path
     style="fill:#e8e8e8;fill-opacity:1"
     d="M 6.25,1 6.1,2.84 A 5.5,5.5 0 0 0 4.49,3.77 L 2.81,2.98 1.06,6.02 2.58,7.07 A 5.5,5.5 0 0 0 2.5,8 5.5,5.5 0 0 0 2.58,8.93 L 1.06,9.98 2.81,13.02 4.48,12.23 A 5.5,5.5 0 0 0 6.1,13.15 L 6.25,15 H 9.75 L 9.9,13.16 A 5.5,5.5 0 0 0 11.51,12.23 L 13.19,13.02 14.94,9.98 13.42,8.93 A 5.5,5.5 0 0 0 13.5,8 5.5,5.5 0 0 0 13.42,7.07 L 14.94,6.02 13.19,2.98 11.52,3.77 A 5.5,5.5 0 0 0 9.9,2.85 L 9.75,1 Z M 8,6 A 2,2 0 0 1 10,8 2,2 0 0 1 8,10 2,2 0 0 1 6,8 2,2 0 0 1 8,6 Z"
     id="path2"
     inkscape:label="body" />
</svg>
