<?xml version="1.0" encoding="UTF-8" standalone="no"?>
<svg
   width="16"
   height="16"
   version="1.1"
   id="svg4"
   sodipodi:docname="hotkeys.svg"
   inkscape:version="1.1.2 (0a00cf5339, 2022-02-04)"
   xmlns:inkscape="http://www.inkscape.org/namespaces/inkscape"
   xmlns:sodipodi="http://sodipodi.sourceforge.net/DTD/sodipodi-0.dtd"
   xmlns="http://www.w3.org/2000/svg"
   xmlns:svg="http://www.w3.org/2000/svg">
  <defs
     id="defs8" />
  <sodipodi:namedview
     id="namedview6"
     pagecolor="#ffffff"
     bordercolor="#666666"
     borderopacity="1.0"
     inkscape:pageshadow="2"
     inkscape:pageopacity="0.0"
     inkscape:pagecheckerboard="0"
     showgrid="false"
     inkscape:zoom="53.9375"
     inkscape:cx="7.99073"
     inkscape:cy="7.99073"
     inkscape:window-width="1920"
     inkscape:window-height="1020"
     inkscape:window-x="0"
     inkscape:window-y="29"
     inkscape:window-maximized="1"
     inkscape:current-layer="svg4" />
  <rect
     style="opacity:0.15;fill:#e8e8e8;stroke-width:0.875;fill-opacity:1"
     id="rect843"
     width="11.972131"
     height="9.1664972"
     x="2.0791616"
     y="3.3194571"
     inkscape:label="keys" />
  <path
     style="fill:#e8e8e8;stroke-width:0.933333;fill-opacity:1"
     d="M 2.8666667,2.4 C 2.8666667,2.4 1,2.4 1,4.2666667 V 11.733333 C 1,13.6 2.8666667,13.6 2.8666667,13.6 H 13.133333 c 0,0 1.866667,0 1.866667,-1.866667 V 4.2666667 C 15,2.4 13.133333,2.4 13.133333,2.4 Z M 3.1,4.2666667 h 1.4 c 0.1306667,0 0.2333333,0.1026666 0.2333333,0.2333333 V 5.9 C 4.7333333,6.0306667 4.6306667,6.1333333 4.5,6.1333333 H 3.1 C 2.9693333,6.1333333 2.8666667,6.0306667 2.8666667,5.9 V 4.5 C 2.8666667,4.3693333 2.9693333,4.2666667 3.1,4.2666667 Z m 2.8,0 h 1.4 c 0.1306667,0 0.2333333,0.1026666 0.2333333,0.2333333 V 5.9 C 7.5333333,6.0306667 7.4306667,6.1333333 7.3,6.1333333 H 5.9 C 5.7693333,6.1333333 5.6666667,6.0306667 5.6666667,5.9 V 4.5 C 5.6666667,4.3693333 5.7693333,4.2666667 5.9,4.2666667 Z m 2.8,0 h 1.4 c 0.130667,0 0.233333,0.1026666 0.233333,0.2333333 v 1.4 c 0,0.1306667 -0.102666,0.2333333 -0.233333,0.2333333 H 8.7 C 8.5693333,6.1333333 8.4666667,6.0306667 8.4666667,5.9 V 4.5 C 8.4666667,4.3693333 8.5693333,4.2666667 8.7,4.2666667 Z m 2.8,0 h 1.4 c 0.130667,0 0.233333,0.1026666 0.233333,0.2333333 v 1.4 c 0,0.1306667 -0.102666,0.2333333 -0.233333,0.2333333 H 11.5 C 11.369333,6.1333333 11.266667,6.0306667 11.266667,5.9 V 4.5 c 0,-0.1306667 0.102666,-0.2333333 0.233333,-0.2333333 z m -8.4,2.8 h 1.4 c 0.1306667,0 0.2333333,0.1026666 0.2333333,0.2333333 V 8.7 C 4.7333333,8.8306667 4.6306667,8.9333333 4.5,8.9333333 H 3.1 C 2.9693333,8.9333333 2.8666667,8.8306667 2.8666667,8.7 V 7.3 C 2.8666667,7.1693333 2.9693333,7.0666667 3.1,7.0666667 Z m 2.8,0 h 1.4 c 0.1306667,0 0.2333333,0.1026666 0.2333333,0.2333333 V 8.7 C 7.5333333,8.8306667 7.4306667,8.9333333 7.3,8.9333333 H 5.9 C 5.7693333,8.9333333 5.6666667,8.8306667 5.6666667,8.7 V 7.3 C 5.6666667,7.1693333 5.7693333,7.0666667 5.9,7.0666667 Z m 2.8,0 h 1.4 c 0.130667,0 0.233333,0.1026666 0.233333,0.2333333 v 1.4 c 0,0.1306667 -0.102666,0.2333333 -0.233333,0.2333333 H 8.7 C 8.5693333,8.9333333 8.4666667,8.8306667 8.4666667,8.7 V 7.3 C 8.4666667,7.1693333 8.5693333,7.0666667 8.7,7.0666667 Z m 2.8,0 h 1.4 c 0.130667,0 0.233333,0.1026666 0.233333,0.2333333 v 1.4 c 0,0.1306667 -0.102666,0.2333333 -0.233333,0.2333333 H 11.5 C 11.369333,8.9333333 11.266667,8.8306667 11.266667,8.7 V 7.3 c 0,-0.1306667 0.102666,-0.2333333 0.233333,-0.2333333 z m -6.5333333,2.8 h 6.0666663 c 0.130667,0 0.233334,0.1026666 0.233334,0.2333333 v 1.4 c 0,0.130667 -0.102667,0.233333 -0.233334,0.233333 H 4.9666667 C 4.836,11.733333 4.7333333,11.630667 4.7333333,11.5 v -1.4 c 0,-0.1306667 0.1026667,-0.2333333 0.2333334,-0.2333333 z"
     id="path2"
     inkscape:label="body" />
</svg>
