<?xml version="1.0" encoding="UTF-8" standalone="no"?>
<svg
   width="16"
   height="16"
   version="1.1"
   id="svg8"
   sodipodi:docname="brush.svg"
   inkscape:version="1.1.2 (0a00cf5339, 2022-02-04)"
   xmlns:inkscape="http://www.inkscape.org/namespaces/inkscape"
   xmlns:sodipodi="http://sodipodi.sourceforge.net/DTD/sodipodi-0.dtd"
   xmlns="http://www.w3.org/2000/svg"
   xmlns:svg="http://www.w3.org/2000/svg">
  <sodipodi:namedview
     id="namedview10"
     pagecolor="#ffffff"
     bordercolor="#666666"
     borderopacity="1.0"
     inkscape:pageshadow="2"
     inkscape:pageopacity="0.0"
     inkscape:pagecheckerboard="0"
     showgrid="false"
     inkscape:zoom="53.9375"
     inkscape:cx="7.0081112"
     inkscape:cy="6.9154114"
     inkscape:window-width="1920"
     inkscape:window-height="1020"
     inkscape:window-x="0"
     inkscape:window-y="29"
     inkscape:window-maximized="1"
     inkscape:current-layer="svg8" />
  <path
     id="rect873"
     style="opacity:0.14979544;fill:#e8e8e8;stroke-width:0.875;fill-opacity:1"
     d="m 11.242608,6.3648868 h 2.744446 v 5.1159822 h -2.744446 z m -4.4428,4.4246812 h 5.141644 v 2.282711 H 6.799808 Z"
     inkscape:label="highlight" />
  <path
     style="display:inline;fill:#e8e8e8;stroke-width:0.87502;fill-opacity:1"
     d="M 7.8514367,5.1528334 C 8.8227085,4.1203103 8.8577093,4.0590589 11.176511,2.3090197 10.266491,1.7665075 9.198967,1.4690009 8.2889465,1.4340001 H 7.9039378 C 6.0576464,1.4602507 3.5813409,2.1340158 3.6163417,4.3040644 3.6600927,6.5703652 6.171399,5.756597 6.3814036,6.6841177 M 6.2414006,2.7727801 c 0.7262662,0 1.3125294,0.5950133 1.3125294,1.3125294 0,0.7262662 -0.5862632,1.3125294 -1.3125294,1.3125294 -0.7262664,0 -1.3125295,-0.5862632 -1.3125295,-1.3125294 0,-0.7175161 0.5862631,-1.3125294 1.3125295,-1.3125294 z M 12.602793,3.3590432 C 11.360265,5.310337 10.528997,6.4653628 9.6539772,7.3666331 9.0939646,7.9441461 8.6389544,8.5129088 8.2364453,8.9241681 7.5014288,9.7029356 6.5389072,10.621706 5.4801335,11.636729 5.5326346,12.923008 6.1888994,14.034283 8.3151971,14.454292 11.727774,15.110557 15.341605,12.853006 14.974097,8.2679033 14.816593,6.3078593 13.749069,4.5228194 12.602793,3.3590432 Z M 12.9003,6.6841177 c 0.481261,0 0.87502,0.3937589 0.87502,0.8750197 0,0.4812608 -0.393759,0.8750197 -0.87502,0.8750197 -0.481261,0 -0.87502,-0.3937589 -0.87502,-0.8750197 0,-0.4812608 0.393759,-0.8750197 0.87502,-0.8750197 z m -0.542512,2.625059 c 0.481261,0 0.866269,0.3937589 0.866269,0.8750193 0,0.481261 -0.385008,0.87502 -0.866269,0.87502 -0.481261,0 -0.87502,-0.393759 -0.87502,-0.87502 0,-0.4812604 0.393759,-0.8750193 0.87502,-0.8750193 z M 7.9914398,11.059216 c 0.4725106,0 0.8662695,0.393759 0.8662695,0.875019 0,0.481261 -0.3937589,0.87502 -0.8662695,0.87502 -0.4812608,0 -0.8750197,-0.393759 -0.8750197,-0.87502 0,-0.48126 0.3937589,-0.875019 0.8750197,-0.875019 z m 2.6163082,0 c 0.481261,0 0.87502,0.393759 0.87502,0.875019 0,0.481261 -0.393759,0.87502 -0.87502,0.87502 -0.48126,0 -0.8750192,-0.393759 -0.8750192,-0.87502 0,-0.48126 0.3937592,-0.875019 0.8750192,-0.875019 z"
     id="path2"
     inkscape:label="body" />
  <path
     style="display:inline;opacity:0.6;fill:#e8e8e8;stroke-width:0.87502;fill-opacity:1"
     d="M 7.0464186,7.0603762 C 5.4101319,8.8716669 3.7913456,11.155468 2.7500723,12.861756 5.3488805,10.857961 7.0464186,9.2216748 8.1226928,8.075399 8.3326975,7.8653943 8.5864532,7.585388 8.8664595,7.2703809 9.9252332,6.1066049 11.430267,4.2603135 13.285309,1.4340001 11.710273,2.5715256 9.601476,4.3215648 7.9301884,6.1066049"
     id="path6"
     inkscape:label="handle" />
  <path
     style="display:inline;fill:#e8e8e8;stroke-width:0.87502;fill-opacity:1"
     d="m 1.000033,13.246765 c 1.3562804,0 1.2162773,-1.566285 1.8812921,-2.003795 0.7612672,-0.498761 1.4350323,0.122503 1.5662853,0.638764 C 4.613864,12.529249 4.342608,13.308016 3.4588381,13.526771 2.5225672,13.763026 1.131286,13.771777 1.000033,13.246765 Z"
     id="path4"
     inkscape:label="tip" />
</svg>
