<?xml version="1.0" encoding="UTF-8" standalone="no"?>
<svg
   width="16"
   height="16"
   version="1.1"
   id="svg4"
   sodipodi:docname="globe.svg"
   inkscape:version="1.1.2 (0a00cf5339, 2022-02-04)"
   xmlns:inkscape="http://www.inkscape.org/namespaces/inkscape"
   xmlns:sodipodi="http://sodipodi.sourceforge.net/DTD/sodipodi-0.dtd"
   xmlns="http://www.w3.org/2000/svg"
   xmlns:svg="http://www.w3.org/2000/svg">
  <sodipodi:namedview
     id="namedview6"
     pagecolor="#ffffff"
     bordercolor="#666666"
     borderopacity="1.0"
     inkscape:pageshadow="2"
     inkscape:pageopacity="0.0"
     inkscape:pagecheckerboard="0"
     showgrid="false"
     inkscape:zoom="53.9375"
     inkscape:cx="7.99073"
     inkscape:cy="8.00927"
     inkscape:window-width="1920"
     inkscape:window-height="1020"
     inkscape:window-x="0"
     inkscape:window-y="29"
     inkscape:window-maximized="1"
     inkscape:current-layer="svg4" />
  <path
     style="display:inline;opacity:0.15;fill:#e8e8e8;stroke-width:1;fill-opacity:1"
     d="M 8,1 C 4.13,1 1,4.1300001 1,8 c 0,3.87 3.13,7 7,7 3.87,0 7,-3.13 7,-7 C 15,4.1300001 11.87,1 8,1 Z"
     id="path2"
     inkscape:label="land" />
  <path
     style="display:inline;fill:#e8e8e8;stroke-width:1;fill-opacity:1"
     d="m 7.9999997,1 c -3.87,0 -7,3.1300001 -7,7 0,3.87 3.13,7 7,7 C 11.87,15 15,11.87 15,8 15,4.1300001 11.87,1 7.9999997,1 Z m -0.5,1.9400001 c 0.07,-0.010002 0.15,0 0.22,0 0.01,0.03 -0.05,0.14 -0.13,0.3099999 -0.48,1.0599999 -0.51,2.3 -0.06,2.97 0.08,0.1200002 0.16,0.23 0.16,0.25 0,0.010002 -0.09,0.03 -0.19,0.03 -0.23,0 -0.45,-0.14 -0.91,-0.5000001 -0.2,-0.1599999 -0.46,-0.29 -0.56,-0.3099999 -0.16,-0.03 -0.2,-0.02 -0.41,0.18 -0.19,0.2 -0.25,0.3 -0.25,0.4699999 0,0.6700001 0.79,1.19 2.25,1.5000002 C 9.61,8.2600001 10.1,8.64 10.16,9.69 c 0.07,1.31 -0.63,2.3 -2.1600003,3.06 -0.18,0.09 -0.3,0.13 -0.38,0.16 -0.03,-0.01 -0.05,0 -0.09,0 -0.01,-0.04 -0.03,-0.14 -0.03,-0.32 0,-0.69 -0.27,-1.41 -0.69,-1.81 -0.11,-0.11 -0.42,-0.33 -0.68,-0.5 -0.27,-0.16 -0.54,-0.35 -0.6,-0.4400001 -0.1,-0.1299999 -0.11,-0.21 -0.03,-0.4699999 0.14,-0.45 0.3,-0.71 0.63,-1.0000001 0.16,-0.1500006 0.33,-0.2699999 0.37,-0.28 0.04,0 -0.22,-0.080001 -0.59,-0.1500006 -0.38,-0.079999 -0.94,-0.2399992 -1.22,-0.3499993 -0.53,-0.19 -1.23,-0.58 -1.5,-0.8699999 -0.01,-0.01 -0.02,-0.02 -0.03,-0.03 0.38,-1.54 1.47,-2.8 2.9,-3.4099999 0.3,-0.1299993 0.61,-0.21 0.94,-0.28 0.16,-0.03 0.33,-0.05 0.5,-0.06 z M 12.19,5.28 c 0.11,0.07 0.56,1.03 0.68,1.5 0.17,0.6099999 0.16,1.65 0,2.2500001 C 12.82,9.26 12.74,9.47 12.72,9.5 12.69,9.53 12.6,9.37 12.5,9.19 12.4,8.9999999 12.06,8.6100001 11.78,8.31 10.98,7.4599999 10.85,7.02 11.19,6.3399999 11.36,6 12.1,5.23 12.19,5.28 Z"
     id="path2-3"
     inkscape:label="body" />
</svg>
