<?xml version="1.0" encoding="UTF-8" standalone="no"?>
<svg
   width="16"
   height="16"
   version="1.1"
   id="svg4"
   sodipodi:docname="microphone.svg"
   inkscape:version="1.1.2 (0a00cf5339, 2022-02-04)"
   xmlns:inkscape="http://www.inkscape.org/namespaces/inkscape"
   xmlns:sodipodi="http://sodipodi.sourceforge.net/DTD/sodipodi-0.dtd"
   xmlns="http://www.w3.org/2000/svg"
   xmlns:svg="http://www.w3.org/2000/svg">
  <sodipodi:namedview
     id="namedview6"
     pagecolor="#ffffff"
     bordercolor="#666666"
     borderopacity="1.0"
     inkscape:pageshadow="2"
     inkscape:pageopacity="0.0"
     inkscape:pagecheckerboard="0"
     showgrid="false"
     inkscape:zoom="53.9375"
     inkscape:cx="7.99073"
     inkscape:cy="8.2132097"
     inkscape:window-width="1920"
     inkscape:window-height="1020"
     inkscape:window-x="0"
     inkscape:window-y="29"
     inkscape:window-maximized="1"
     inkscape:current-layer="svg4" />
  <path
     style="opacity:0.6;fill:#e8e8e8;stroke-width:0.875;fill-opacity:1"
     d="M 2.75,7.125 V 8 c 0,2.59875 1.89,4.75125 4.375,5.17125 V 15 h 1.75 V 13.17125 C 11.36,12.75125 13.25,10.59875 13.25,8 V 7.125 H 11.5 V 8 C 11.5,9.95125 9.95125,11.5 8,11.5 6.04875,11.5 4.5,9.95125 4.5,8 V 7.125 Z"
     id="path831"
     inkscape:label="body" />
  <path
     style="fill:#e8e8e8;stroke-width:0.875;fill-opacity:1"
     d="M 8,1 C 6.5475,1 5.375,2.1725 5.375,3.625 V 8 c 0,1.4525 1.1725,2.625 2.625,2.625 1.4525,0 2.625,-1.1725 2.625,-2.625 V 3.625 C 10.625,2.1725 9.4525,1 8,1 Z"
     id="path2"
     inkscape:label="tip" />
</svg>
