<?xml version="1.0" encoding="UTF-8" standalone="no"?>
<svg
   width="16"
   height="16"
   version="1.1"
   id="svg4"
   sodipodi:docname="image.svg"
   inkscape:version="1.1.2 (0a00cf5339, 2022-02-04)"
   xmlns:inkscape="http://www.inkscape.org/namespaces/inkscape"
   xmlns:sodipodi="http://sodipodi.sourceforge.net/DTD/sodipodi-0.dtd"
   xmlns="http://www.w3.org/2000/svg"
   xmlns:svg="http://www.w3.org/2000/svg">
  <sodipodi:namedview
     id="namedview6"
     pagecolor="#ffffff"
     bordercolor="#666666"
     borderopacity="1.0"
     inkscape:pageshadow="2"
     inkscape:pageopacity="0.0"
     inkscape:pagecheckerboard="0"
     showgrid="false"
     inkscape:zoom="53.9375"
     inkscape:cx="7.99073"
     inkscape:cy="7.9536501"
     inkscape:window-width="1920"
     inkscape:window-height="1020"
     inkscape:window-x="0"
     inkscape:window-y="29"
     inkscape:window-maximized="1"
     inkscape:current-layer="svg4" />
  <path
     id="rect924"
     style="opacity:0.15;fill:#e8e8e8;stroke-width:0.875;fill-opacity:1"
     d="m 7.5050516,6.279983 h 5.2141014 v 7.335882 H 7.5050516 Z M 1.5867568,8.4650097 H 8.0875307 V 13.476996 H 1.5867568 Z"
     inkscape:label="mountain" />
  <path
     style="fill:#e8e8e8;stroke-width:0.875;fill-opacity:1"
     d="m 2.0492911,1.8750085 c -0.5817,0 -1.0493166,0.4547219 -1.0493166,1.0202637 V 13.104745 c 0,0.0524 0.0042,0.103585 0.0119612,0.153809 0.00114,0.0074 0.0021,0.01489 0.00341,0.02222 0.00906,0.05117 0.022767,0.100471 0.039305,0.148681 0.015995,0.04663 0.035674,0.09169 0.058109,0.13501 0.00297,0.0057 0.00551,0.01148 0.00857,0.01709 0.023835,0.04396 0.052089,0.08493 0.082031,0.124756 0.00175,0.0023 0.00341,0.0046 0.00516,0.0068 0.031202,0.04079 0.063814,0.08047 0.1008306,0.11621 0.038482,0.03715 0.080701,0.06983 0.1247558,0.100831 0.04368,0.03074 0.089985,0.05804 0.1384276,0.08203 0.096583,0.04784 0.2014924,0.08224 0.3127443,0.09912 0.053603,0.0081 0.1080266,0.01369 0.1640625,0.01369 h 10.8503405 1.051026 c 0.5817,0 1.049318,-0.454722 1.049318,-1.020264 V 2.8952722 c 0,-0.5655418 -0.467618,-1.0202637 -1.049318,-1.0202637 z m 2.8881833,1.75 c 1.2081195,0 2.1875,0.9793801 2.1875,2.1874998 0,1.2081196 -0.9793805,2.1875001 -2.1875,2.1875001 -1.2081195,0 -2.1875,-0.9793805 -2.1875,-2.1875001 0,-1.2081198 0.9793805,-2.1874999 2.1875,-2.1874998 z M 8.7006579,7.1250086 12.347631,13.250009 H 2.0492911 c -0.1251303,0 -0.1743166,-0.06275 -0.1743166,-0.145264 V 12.253671 L 3.5907943,9.7500084 5.4843494,12.568124 Z"
     id="path2"
     inkscape:label="body" />
</svg>
