<?xml version="1.0" encoding="UTF-8" standalone="no"?>
<svg
   width="16"
   height="16"
   version="1.1"
   id="svg6"
   sodipodi:docname="invisible.svg"
   inkscape:version="1.1.2 (0a00cf5339, 2022-02-04)"
   xmlns:inkscape="http://www.inkscape.org/namespaces/inkscape"
   xmlns:sodipodi="http://sodipodi.sourceforge.net/DTD/sodipodi-0.dtd"
   xmlns="http://www.w3.org/2000/svg"
   xmlns:svg="http://www.w3.org/2000/svg">
  <defs
     id="defs10" />
  <sodipodi:namedview
     id="namedview8"
     pagecolor="#ffffff"
     bordercolor="#666666"
     borderopacity="1.0"
     inkscape:pageshadow="2"
     inkscape:pageopacity="0.0"
     inkscape:pagecheckerboard="0"
     showgrid="false"
     inkscape:zoom="53.9375"
     inkscape:cx="7.99073"
     inkscape:cy="8.02781"
     inkscape:window-width="1920"
     inkscape:window-height="1020"
     inkscape:window-x="0"
     inkscape:window-y="29"
     inkscape:window-maximized="1"
     inkscape:current-layer="svg6" />
  <path
     id="path2"
     style="opacity:0.35;fill:#e8e8e8;stroke-width:1;fill-opacity:1"
     d="M 2.5 1 L 1 2.5 L 2.9882812 4.4882812 C 0.82892496 5.9568981 0 8 0 8 C 0 8 2 13 8 13 C 9.1490683 13 10.148931 12.813064 11.015625 12.515625 L 13.5 15 L 15 13.5 L 2.5 1 z M 8 3 C 7.5092 3 7.046675 3.0454743 6.609375 3.109375 L 8.5625 5.0625 A 3 3 0 0 1 10.951172 7.4511719 L 14.115234 10.615234 C 15.460234 9.3293344 16 8 16 8 C 16 8 14 3 8 3 z M 5.2734375 6.7734375 L 9.2246094 10.724609 A 3 3 0 0 1 8 11 A 3 3 0 0 1 5 8 A 3 3 0 0 1 5.2734375 6.7734375 z "
     inkscape:label="body" />
</svg>
