<?xml version="1.0" encoding="UTF-8" standalone="no"?>
<svg
   width="62"
   height="16"
   version="1.1"
   id="svg4"
   sodipodi:docname="no_sources.svg"
   inkscape:version="1.1.2 (0a00cf5339, 2022-02-04)"
   xmlns:inkscape="http://www.inkscape.org/namespaces/inkscape"
   xmlns:sodipodi="http://sodipodi.sourceforge.net/DTD/sodipodi-0.dtd"
   xmlns="http://www.w3.org/2000/svg"
   xmlns:svg="http://www.w3.org/2000/svg">
  <defs
     id="defs8" />
  <sodipodi:namedview
     id="namedview6"
     pagecolor="#ffffff"
     bordercolor="#666666"
     borderopacity="1.0"
     inkscape:pageshadow="2"
     inkscape:pageopacity="0.0"
     inkscape:pagecheckerboard="0"
     showgrid="false"
     inkscape:zoom="6.7421875"
     inkscape:cx="-10.827346"
     inkscape:cy="-20.468134"
     inkscape:window-width="1920"
     inkscape:window-height="1020"
     inkscape:window-x="0"
     inkscape:window-y="29"
     inkscape:window-maximized="1"
     inkscape:current-layer="g1929" />
  <g
     id="g1929"
     transform="translate(47.125)"
     style="fill:#e8e8e8;fill-opacity:1"
     inkscape:label="camera"
     sodipodi:insensitive="true"
     inkscape:groupmode="layer">
    <path
       style="display:inline;opacity:0.6;fill:#e8e8e8;fill-opacity:1;stroke-width:0.875"
       d="m 7.9572755,5.3750688 a 1.75,1.75 0 0 0 -1.7072755,1.75 1.75,1.75 0 0 0 1.75,1.75 1.75,1.75 0 0 0 1.75,-1.75 1.75,1.75 0 0 0 -1.75,-1.75 1.75,1.75 0 0 0 -0.042725,0 z"
       id="path3203"
       inkscape:label="inner" />
    <path
       id="path2-6"
       style="display:inline;fill:#e8e8e8;fill-opacity:1;stroke-width:0.875"
       d="M 7.9179687,1.0000688 A 6.125,6.125 0 0 0 1.875,7.1250688 6.125,6.125 0 0 0 5.4006349,12.670723 C 4.46276,12.983957 3.625,13.343059 3.625,13.639716 v 0.680176 c 0,0.377028 0.3257783,0.680176 0.729736,0.680176 h 7.290528 c 0.403959,0 0.729736,-0.303148 0.729736,-0.680176 v -0.680176 c 0,-0.296657 -0.83776,-0.655759 -1.775635,-0.968993 A 6.125,6.125 0 0 0 14.125,7.1250688 6.125,6.125 0 0 0 8,1.0000688 a 6.125,6.125 0 0 0 -0.082031,0 z m 0.02905,2.625 a 3.5,3.5 0 0 1 0.052981,0 3.5,3.5 0 0 1 3.5000003,3.5 A 3.5,3.5 0 0 1 8,10.625069 3.5,3.5 0 0 1 4.5,7.1250688 a 3.5,3.5 0 0 1 3.4470214,-3.5 z"
       inkscape:label="outer" />
  </g>
  <g
     id="g1911"
     transform="translate(32)"
     style="fill:#e8e8e8;fill-opacity:1"
     inkscape:label="monitor">
    <rect
       style="opacity:0.15;fill:#e8e8e8;fill-opacity:1;stroke-width:0.875"
       id="rect843"
       width="11.728921"
       height="7.8733258"
       x="2.026633"
       y="3.2004867"
       inkscape:label="screen" />
    <path
       style="fill:#e8e8e8;fill-opacity:1;stroke-width:0.875"
       d="M 14.125,1.875 C 15,1.875 15,2.75 15,2.75 v 8.75 c 0,0 0,0.875 -0.875,0.875 H 1.875 c 0,0 -0.875,0 -0.875,-0.875 V 2.75 c 0,0 0,-0.875 0.875,-0.875 z M 13.25,3.625 H 2.75 v 7 h 10.5 z m -2.625,9.625 v 0.875 H 5.375 V 13.25 c 0,-0.875 0.875,-0.875 0.875,-0.875 h 3.5 c 0,0 0.875,0 0.875,0.875 z"
       id="path2-5"
       inkscape:label="body" />
  </g>
  <g
     id="g1920"
     transform="translate(16)"
     style="fill:#e8e8e8;fill-opacity:1"
     inkscape:label="globe">
    <path
       style="display:inline;opacity:0.15;fill:#e8e8e8;fill-opacity:1;stroke-width:1"
       d="M 8,1 C 4.13,1 1,4.1300001 1,8 c 0,3.87 3.13,7 7,7 3.87,0 7,-3.13 7,-7 C 15,4.1300001 11.87,1 8,1 Z"
       id="path2-2"
       inkscape:label="land" />
    <path
       style="display:inline;fill:#e8e8e8;fill-opacity:1;stroke-width:1"
       d="m 7.9999997,1 c -3.87,0 -7,3.1300001 -7,7 0,3.87 3.13,7 7,7 C 11.87,15 15,11.87 15,8 15,4.1300001 11.87,1 7.9999997,1 Z m -0.5,1.9400001 c 0.07,-0.010002 0.15,0 0.22,0 0.01,0.03 -0.05,0.14 -0.13,0.3099999 -0.48,1.0599999 -0.51,2.3 -0.06,2.97 0.08,0.1200002 0.16,0.23 0.16,0.25 0,0.010002 -0.09,0.03 -0.19,0.03 -0.23,0 -0.45,-0.14 -0.91,-0.5000001 -0.2,-0.1599999 -0.46,-0.29 -0.56,-0.3099999 -0.16,-0.03 -0.2,-0.02 -0.41,0.18 -0.19,0.2 -0.25,0.3 -0.25,0.4699999 0,0.6700001 0.79,1.19 2.25,1.5000002 C 9.61,8.2600001 10.1,8.64 10.16,9.69 c 0.07,1.31 -0.63,2.3 -2.1600003,3.06 -0.18,0.09 -0.3,0.13 -0.38,0.16 -0.03,-0.01 -0.05,0 -0.09,0 -0.01,-0.04 -0.03,-0.14 -0.03,-0.32 0,-0.69 -0.27,-1.41 -0.69,-1.81 -0.11,-0.11 -0.42,-0.33 -0.68,-0.5 -0.27,-0.16 -0.54,-0.35 -0.6,-0.4400001 -0.1,-0.1299999 -0.11,-0.21 -0.03,-0.4699999 0.14,-0.45 0.3,-0.71 0.63,-1.0000001 0.16,-0.1500006 0.33,-0.2699999 0.37,-0.28 0.04,0 -0.22,-0.080001 -0.59,-0.1500006 -0.38,-0.079999 -0.94,-0.2399992 -1.22,-0.3499993 -0.53,-0.19 -1.23,-0.58 -1.5,-0.8699999 -0.01,-0.01 -0.02,-0.02 -0.03,-0.03 0.38,-1.54 1.47,-2.8 2.9,-3.4099999 0.3,-0.1299993 0.61,-0.21 0.94,-0.28 0.16,-0.03 0.33,-0.05 0.5,-0.06 z M 12.19,5.28 c 0.11,0.07 0.56,1.03 0.68,1.5 0.17,0.6099999 0.16,1.65 0,2.2500001 C 12.82,9.26 12.74,9.47 12.72,9.5 12.69,9.53 12.6,9.37 12.5,9.19 12.4,8.9999999 12.06,8.6100001 11.78,8.31 10.98,7.4599999 10.85,7.02 11.19,6.3399999 11.36,6 12.1,5.23 12.19,5.28 Z"
       id="path2-3"
       inkscape:label="body" />
  </g>
  <g
     id="g887"
     inkscape:label="image">
    <path
       id="rect924"
       style="opacity:0.15;fill:#e8e8e8;fill-opacity:1;stroke-width:0.875"
       d="m 7.5050516,6.279983 h 5.2141014 v 7.335882 H 7.5050516 Z M 1.5867568,8.4650097 H 8.0875307 V 13.476996 H 1.5867568 Z"
       inkscape:label="highlight" />
    <path
       style="fill:#e8e8e8;fill-opacity:1;stroke-width:0.875"
       d="m 2.0492911,1.8750085 c -0.5817,0 -1.0493166,0.4547219 -1.0493166,1.0202637 V 13.104745 c 0,0.0524 0.0042,0.103585 0.0119612,0.153809 0.00114,0.0074 0.0021,0.01489 0.00341,0.02222 0.00906,0.05117 0.022767,0.100471 0.039305,0.148681 0.015995,0.04663 0.035674,0.09169 0.058109,0.13501 0.00297,0.0057 0.00551,0.01148 0.00857,0.01709 0.023835,0.04396 0.052089,0.08493 0.082031,0.124756 0.00175,0.0023 0.00341,0.0046 0.00516,0.0068 0.031202,0.04079 0.063814,0.08047 0.1008306,0.11621 0.038482,0.03715 0.080701,0.06983 0.1247558,0.100831 0.04368,0.03074 0.089985,0.05804 0.1384276,0.08203 0.096583,0.04784 0.2014924,0.08224 0.3127443,0.09912 0.053603,0.0081 0.1080266,0.01369 0.1640625,0.01369 h 10.8503405 1.051026 c 0.5817,0 1.049318,-0.454722 1.049318,-1.020264 V 2.8952722 c 0,-0.5655418 -0.467618,-1.0202637 -1.049318,-1.0202637 z m 2.8881833,1.75 c 1.2081195,0 2.1875,0.9793801 2.1875,2.1874998 0,1.2081196 -0.9793805,2.1875001 -2.1875,2.1875001 -1.2081195,0 -2.1875,-0.9793805 -2.1875,-2.1875001 0,-1.2081198 0.9793805,-2.1874999 2.1875,-2.1874998 z M 8.7006579,7.1250086 12.347631,13.250009 H 2.0492911 c -0.1251303,0 -0.1743166,-0.06275 -0.1743166,-0.145264 V 12.253671 L 3.5907943,9.7500084 5.4843494,12.568124 Z"
       id="path2"
       inkscape:label="body" />
  </g>
</svg>
