<?xml version="1.0" encoding="UTF-8" standalone="no"?>
<svg
   width="16"
   height="16"
   version="1.1"
   id="svg4"
   sodipodi:docname="visible.svg"
   inkscape:version="1.1.2 (0a00cf5339, 2022-02-04)"
   xmlns:inkscape="http://www.inkscape.org/namespaces/inkscape"
   xmlns:sodipodi="http://sodipodi.sourceforge.net/DTD/sodipodi-0.dtd"
   xmlns="http://www.w3.org/2000/svg"
   xmlns:svg="http://www.w3.org/2000/svg">
  <defs
     id="defs8" />
  <sodipodi:namedview
     id="namedview6"
     pagecolor="#ffffff"
     bordercolor="#666666"
     borderopacity="1.0"
     inkscape:pageshadow="2"
     inkscape:pageopacity="0.0"
     inkscape:pagecheckerboard="0"
     showgrid="false"
     inkscape:zoom="53.9375"
     inkscape:cx="7.99073"
     inkscape:cy="8.2132097"
     inkscape:window-width="1920"
     inkscape:window-height="1020"
     inkscape:window-x="0"
     inkscape:window-y="29"
     inkscape:window-maximized="1"
     inkscape:current-layer="svg4" />
  <path
     style="display:inline;opacity:0.6;fill:#e8e8e8;fill-opacity:1"
     d="M 8,7 A 1,1 0 0 0 7,8 1,1 0 0 0 8,9 1,1 0 0 0 9,8 1,1 0 0 0 8,7 Z"
     id="path984"
     inkscape:label="inner" />
  <path
     id="path2-3"
     style="display:inline;fill:#e8e8e8;fill-opacity:1"
     d="M 8,3 C 2,3 -2e-7,8 -2e-7,8 -2e-7,8 2,13 8,13 14,13 16,8 16,8 16,8 14,3 8,3 Z M 8,5 A 3,3 0 0 1 11,8 3,3 0 0 1 8,11 3,3 0 0 1 5,8 3,3 0 0 1 8,5 Z"
     inkscape:label="outer" />
</svg>
