<?xml version="1.0" encoding="UTF-8" standalone="no"?>
<svg
   width="16"
   height="16"
   version="1.1"
   id="svg1"
   sodipodi:docname="checked disabled.svg"
   inkscape:version="1.4.2 (ebf0e940d0, 2025-05-08)"
   xmlns:inkscape="http://www.inkscape.org/namespaces/inkscape"
   xmlns:sodipodi="http://sodipodi.sourceforge.net/DTD/sodipodi-0.dtd"
   xmlns="http://www.w3.org/2000/svg"
   xmlns:svg="http://www.w3.org/2000/svg">
  <sodipodi:namedview
     id="namedview1"
     pagecolor="#505050"
     bordercolor="#ffffff"
     borderopacity="1"
     inkscape:showpageshadow="0"
     inkscape:pageopacity="0"
     inkscape:pagecheckerboard="1"
     inkscape:deskcolor="#d1d1d1"
     inkscape:zoom="36.25"
     inkscape:cx="12.013793"
     inkscape:cy="12"
     inkscape:window-width="1868"
     inkscape:window-height="1052"
     inkscape:window-x="0"
     inkscape:window-y="0"
     inkscape:window-maximized="1"
     inkscape:current-layer="svg1" />
  <defs
     id="defs1">
    <style
       id="current-color-scheme"
       type="text/css">
   .ColorScheme-Text { color:#444444; } .ColorScheme-Highlight { color:#4285f4; } .ColorScheme-NeutralText { color:#ff9800; } .ColorScheme-PositiveText { color:#4caf50; } .ColorScheme-NegativeText { color:#f44336; }
  </style>
  </defs>
  <path
     style="display:inline;opacity:0.5;fill:#e8e8e8;fill-opacity:1;stroke-width:1"
     d="M 8,4 A 4,4 0 0 0 4,8 4,4 0 0 0 8,12 4,4 0 0 0 12,8 4,4 0 0 0 8,4 Z"
     id="path3" />
  <path
     id="path1"
     style="display:inline;opacity:0.150066;fill:#e8e8e8;fill-opacity:1;stroke-width:1"
     d="M 8,0 C 3.5885715,0 0,3.5885715 0,8 c 0,4.411429 3.5885715,8 8,8 4.411429,0 8,-3.588571 8,-8 C 16,3.5885715 12.411429,0 8,0 Z m 0,2 c 3.32,0 6,2.68 6,6 0,3.32 -2.68,6 -6,6 C 4.6799999,14 2,11.32 2,8 2,4.68 4.6799999,2 8,2 Z" />
</svg>
